<?xml version="1.0" encoding="UTF-8"?>
<svg version="1.1"
    xmlns="http://www.w3.org/2000/svg" width="147" height="147">
    <path d="M0 0 C0.55816406 0.61488281 1.11632812 1.22976563 1.69140625 1.86328125 C-1.49449059 6.85934676 -4.77347135 11.39528962 -8.74609375 15.80078125 C-11.36395519 19.11673908 -13.06699175 21.65513139 -13.37109375 25.92578125 C-12.84463103 28.89183462 -11.98707188 30.34497793 -9.58984375 32.17626953 C-1.45623896 37.52853318 -1.45623896 37.52853318 7.69140625 39.86328125 C2.84645461 33.57793859 -2.78276825 29.33382007 -9.30859375 24.86328125 C-8.99609375 22.48828125 -8.99609375 22.48828125 -8.30859375 19.86328125 C-7.31859375 19.20328125 -6.32859375 18.54328125 -5.30859375 17.86328125 C3.82156901 25.23855558 13.5224665 34.93362333 14.96191406 47.16113281 C15.14014472 49.73303113 15.22313181 52.28549825 15.25390625 54.86328125 C15.2686499 55.70101074 15.28339355 56.53874023 15.29858398 57.40185547 C15.26056974 59.63854958 15.1777298 61.67933095 14.69140625 63.86328125 C12.69140625 65.6484375 12.69140625 65.6484375 10.69140625 66.86328125 C8.51366365 74.53794656 11.91862451 83.5457796 13.99975586 90.95678711 C14.22928955 91.79089111 14.45882324 92.62499512 14.6953125 93.484375 C14.91002197 94.23130615 15.12473145 94.9782373 15.34594727 95.74780273 C15.74022654 98.16224083 15.58840886 99.59199952 14.69140625 101.86328125 C12.05859375 103.6875 12.05859375 103.6875 8.56640625 105.55078125 C7.29584393 106.24159659 6.02634975 106.93437931 4.7578125 107.62890625 C4.09410645 107.98919922 3.43040039 108.34949219 2.74658203 108.72070312 C-1.38226924 111.01614432 -5.39424417 113.5114584 -9.42041016 115.98120117 C-12.03612274 117.56979223 -14.39343291 118.89156097 -17.30859375 119.86328125 C-18.4304703 116.49765159 -18.22244463 114.62995029 -17.8203125 111.12890625 C-17.69076172 109.99710937 -17.56121094 108.8653125 -17.42773438 107.69921875 C-17.28529297 106.51585938 -17.14285156 105.3325 -16.99609375 104.11328125 C-16.86525391 102.94539063 -16.73441406 101.7775 -16.59960938 100.57421875 C-16.21868745 97.3281015 -15.78265901 94.0969785 -15.30859375 90.86328125 C-15.21408936 90.1170752 -15.11958496 89.37086914 -15.0222168 88.60205078 C-14.67578125 86.76171875 -14.67578125 86.76171875 -13.30859375 83.86328125 C-10.72964875 82.38207107 -8.47640797 81.30896783 -5.74609375 80.23828125 C-3.0399867 79.02507944 -0.55926845 77.81248672 1.69140625 75.86328125 C3.28064441 71.40316125 3.25364164 67.53197006 2.69140625 62.86328125 C-1.95713818 60.16391035 -6.62283767 57.49753086 -11.30859375 54.86328125 C-12.29214844 54.30898437 -13.27570313 53.7546875 -14.2890625 53.18359375 C-15.14113281 52.72726563 -15.99320313 52.2709375 -16.87109375 51.80078125 C-17.61488281 51.39730469 -18.35867187 50.99382812 -19.125 50.578125 C-23.24755379 49.22852331 -26.35446191 50.81316345 -30.0859375 52.60546875 C-31.47577629 53.31028728 -32.86243781 54.02140102 -34.24609375 54.73828125 C-34.93638672 55.09019531 -35.62667969 55.44210938 -36.33789062 55.8046875 C-37.6393754 56.46838305 -38.9396001 57.1345607 -40.23803711 57.80419922 C-42.91896283 59.17548277 -45.61522689 60.51659782 -48.30859375 61.86328125 C-48.30859375 66.81328125 -48.30859375 71.76328125 -48.30859375 76.86328125 C-43.79350872 78.75320789 -43.79350872 78.75320789 -39.27392578 80.63232422 C-36.51127338 81.80232371 -34.44875295 82.72312205 -32.30859375 84.86328125 C-31.71435547 87.56542969 -31.71435547 87.56542969 -31.23828125 90.97265625 C-31.06425781 92.20242187 -30.89023438 93.4321875 -30.7109375 94.69921875 C-30.53691406 95.99085937 -30.36289063 97.2825 -30.18359375 98.61328125 C-30.00183594 99.88945313 -29.82007812 101.165625 -29.6328125 102.48046875 C-28.86779778 107.9908755 -28.20017778 113.29091072 -28.30859375 118.86328125 C-29.29859375 119.35828125 -29.29859375 119.35828125 -30.30859375 119.86328125 C-32.19702148 118.98632812 -32.19702148 118.98632812 -34.4921875 117.58203125 C-35.33297852 117.0725293 -36.17376953 116.56302734 -37.04003906 116.03808594 C-37.93303711 115.48540039 -38.82603516 114.93271484 -39.74609375 114.36328125 C-41.09912598 113.53812012 -41.09912598 113.53812012 -42.47949219 112.69628906 C-48.80366351 108.8281066 -55.09660904 104.90961992 -61.30859375 100.86328125 C-60.88125075 95.73516523 -60.14315851 91.06890718 -58.74609375 86.11328125 C-57.11744901 79.82445501 -56.17053613 73.31526145 -57.30859375 66.86328125 C-57.97375 66.26257813 -58.63890625 65.661875 -59.32421875 65.04296875 C-61.96974335 62.13705787 -61.76724033 60.28670887 -61.66210938 56.46655273 C-61.57993164 55.23980835 -61.57993164 55.23980835 -61.49609375 53.98828125 C-61.44259766 53.14273682 -61.38910156 52.29719238 -61.33398438 51.42602539 C-60.25598081 39.44908872 -54.52379722 30.5493725 -46.6171875 21.65625 C-43.84496021 19.50320037 -41.76561747 19.16583282 -38.30859375 18.86328125 C-37.64859375 20.51328125 -36.98859375 22.16328125 -36.30859375 23.86328125 C-38.67928931 25.7751325 -41.04946729 27.67285558 -43.50390625 29.4765625 C-44.28507812 30.05792969 -45.06625 30.63929687 -45.87109375 31.23828125 C-46.61488281 31.78226563 -47.35867187 32.32625 -48.125 32.88671875 C-50.92732553 35.26138566 -50.92732553 35.26138566 -54.30859375 40.86328125 C-47.70859375 37.56328125 -41.10859375 34.26328125 -34.30859375 30.86328125 C-34.61833761 22.48604773 -34.61833761 22.48604773 -37.93359375 16.36328125 C-38.73023438 15.28240234 -38.73023438 15.28240234 -39.54296875 14.1796875 C-40.125625 13.41527344 -40.70828125 12.65085937 -41.30859375 11.86328125 C-42.60602528 10.01314389 -43.89774602 8.15898803 -45.18359375 6.30078125 C-46.22424221 4.82089806 -47.2655329 3.34146512 -48.30859375 1.86328125 C-44.49913476 -3.85090724 -36.26582834 -5.3974101 -29.80859375 -7.01171875 C-19.81246147 -7.36872347 -7.75117145 -7.17409608 0 0 Z M-15.30859375 8.86328125 C-14.30859375 10.86328125 -14.30859375 10.86328125 -14.30859375 10.86328125 Z M-16.30859375 11.86328125 C-15.30859375 14.86328125 -15.30859375 14.86328125 -15.30859375 14.86328125 Z M-17.30859375 14.86328125 C-16.30859375 16.86328125 -16.30859375 16.86328125 -16.30859375 16.86328125 Z " fill="#A9A9A9" transform="translate(97.30859375,14.13671875)"/>
    <path d="M0 0 C8.51498425 4.38650704 13.68432051 11.66627408 18 20 C18.54785156 21.05316406 19.09570312 22.10632813 19.66015625 23.19140625 C21.54984336 27.6975832 21.33021547 32.12542714 21.1875 36.9375 C21.16719727 38.24944336 21.16719727 38.24944336 21.14648438 39.58789062 C21.11144109 41.72553086 21.05764541 43.86284984 21 46 C20.01 46 19.02 46 18 46 C18.33 45.67 18.66 45.34 19 45 C19.07325168 42.13732433 19.09238205 39.299281 19.0625 36.4375 C19.05798828 35.63119141 19.05347656 34.82488281 19.04882812 33.99414062 C19.03700518 31.99606244 19.01906914 29.99802217 19 28 C16.69 26.68 14.38 25.36 12 24 C12.66 23.34 13.32 22.68 14 22 C9.15504836 15.71465734 3.5258255 11.47053882 -3 7 C-2.25 2.25 -2.25 2.25 0 0 Z " fill="#A0A0A0" transform="translate(91,32)"/>
    <path d="M0 0 C1.4540625 0.0309375 1.4540625 0.0309375 2.9375 0.0625 C2.7145445 6.30525391 1.26137451 11.71451238 -0.8125 17.5625 C-1.05242676 18.28115234 -1.29235352 18.99980469 -1.53955078 19.74023438 C-2.296875 21.78125 -2.296875 21.78125 -4.0625 25.0625 C-6.640625 26.09375 -6.640625 26.09375 -9.0625 26.0625 C-9.7225 25.7325 -10.3825 25.4025 -11.0625 25.0625 C-10.37078667 19.71036814 -8.79146936 14.83496414 -7.0625 9.75 C-6.78921875 8.92693359 -6.5159375 8.10386719 -6.234375 7.25585938 C-3.82004449 0.07796009 -3.82004449 0.07796009 0 0 Z " fill="#A2A2A2" transform="translate(78.0625,69.9375)"/>
    <path d="M0 0 C0.66 1.65 1.32 3.3 2 5 C-0.37069556 6.91185125 -2.74087354 8.80957433 -5.1953125 10.61328125 C-9.79697912 14.03795393 -13.1840298 16.98022704 -16 22 C-14.68 21.67 -13.36 21.34 -12 21 C-14.35277269 23.72426311 -16.62496331 24.8141763 -20 26 C-20.585594 17.95704568 -16.12326145 11.67295547 -11.046875 5.703125 C-5.43801653 0 -5.43801653 0 0 0 Z " fill="#A5A5A5" transform="translate(59,33)"/>
    <path d="M0 0 C4.62 2.31 9.24 4.62 14 7 C13 11 13 11 10.41796875 12.921875 C9.35191406 13.52515625 8.28585938 14.1284375 7.1875 14.75 C6.12917969 15.36359375 5.07085937 15.9771875 3.98046875 16.609375 C1 18 1 18 -3 18 C-3.25 15.6875 -3.25 15.6875 -3 13 C-0.95575462 11.02389614 0.1176825 10 3 10 C1.74458443 7.48916886 0.49936512 7.12874554 -2 6 C-1.125 1.125 -1.125 1.125 0 0 Z " fill="#A3A3A3" transform="translate(84,74)"/>
    <path d="M0 0 C0.33 1.65 0.66 3.3 1 5 C-0.65 5.66 -2.3 6.32 -4 7 C-3.3503125 7.6496875 -3.3503125 7.6496875 -2.6875 8.3125 C-1.125 9.875 0.4375 11.4375 2 13 C1.34 14.32 0.68 15.64 0 17 C-5.80342274 15.51194289 -10.17590879 12.40902445 -15 9 C-14.80078125 7.171875 -14.80078125 7.171875 -14 5 C-11.85546875 3.515625 -11.85546875 3.515625 -9.1875 2.25 C-7.87845703 1.60804687 -7.87845703 1.60804687 -6.54296875 0.953125 C-4 0 -4 0 0 0 Z " fill="#A1A1A1" transform="translate(65,75)"/>
    <path d="M0 0 C0.99 0.66 1.98 1.32 3 2 C2.88557539 3.60495567 2.75805306 5.20898119 2.625 6.8125 C2.55539063 7.70582031 2.48578125 8.59914063 2.4140625 9.51953125 C2 12 2 12 0 15 C-2.475 14.01 -2.475 14.01 -5 13 C-4.39254603 8.14036821 -2.27241033 4.2594482 0 0 Z " fill="#A0A0A0" transform="translate(36,83)"/>
    <path d="M0 0 C2.98052395 2.55473482 4.46340188 5.41460439 6 9 C6 10.32 6 11.64 6 13 C4.35 13.66 2.7 14.32 1 15 C-0.87592203 11.81908874 -1.24719681 9.48656709 -1.1875 5.8125 C-1.18105469 4.93207031 -1.17460938 4.05164063 -1.16796875 3.14453125 C-1 1 -1 1 0 0 Z " fill="#9C9C9C" transform="translate(111,83)"/>
    <path d="M0 0 C5.42168675 -0.48192771 5.42168675 -0.48192771 7.6875 1.40625 C9.72139116 5.42560633 9.31516058 9.31788644 9.1875 13.75 C9.17396484 14.63816406 9.16042969 15.52632812 9.14648438 16.44140625 C9.11121309 18.62822578 9.06192752 20.81379966 9 23 C8.01 23 7.02 23 6 23 C6.33 22.67 6.66 22.34 7 22 C7.07325168 19.13732433 7.09238205 16.299281 7.0625 13.4375 C7.05798828 12.63119141 7.05347656 11.82488281 7.04882812 10.99414062 C7.03700518 8.99606244 7.01906914 6.99802217 7 5 C3.535 3.02 3.535 3.02 0 1 C0 0.67 0 0.34 0 0 Z " fill="#878787" transform="translate(103,55)"/>
    <path d="M0 0 C0 3 0 3 -2 6 C-0.68 5.67 0.64 5.34 2 5 C-0.35277269 7.72426311 -2.62496331 8.8141763 -6 10 C-6.125 7.125 -6.125 7.125 -6 4 C-4.04783565 2.04783565 -2.46800047 1.15173355 0 0 Z " fill="#8C8C8C" transform="translate(45,49)"/>
    <path d="M0 0 C0.99 0.33 1.98 0.66 3 1 C2.38125 1.0825 1.7625 1.165 1.125 1.25 C-1.15052132 1.77647907 -1.15052132 1.77647907 -1.90625 3.8125 C-3.15269 6.30537999 -4.62337161 7.822506 -6.625 9.75 C-7.57246094 10.67039062 -7.57246094 10.67039062 -8.5390625 11.609375 C-9.02117188 12.06828125 -9.50328125 12.5271875 -10 13 C-10 9.28115772 -9.1259934 8.63852271 -6.6875 5.9375 C-5.76517578 4.89916016 -5.76517578 4.89916016 -4.82421875 3.83984375 C-3 2 -3 2 0 0 Z " fill="#9B9B9B" transform="translate(55,33)"/>
    <path d="M0 0 C-0.99 0.495 -0.99 0.495 -2 1 C-2 3.31 -2 5.62 -2 8 C-3.66666667 6.33333333 -5.33333333 4.66666667 -7 3 C-7.99 2.67 -8.98 2.34 -10 2 C-3.375 -1.125 -3.375 -1.125 0 0 Z " fill="" transform="translate(64,10)"/>
    <path d="M0 0 C2.45823172 3.68734758 3.01242616 6.69699971 4 11 C3.01 11 2.02 11 1 11 C0.67 7.37 0.34 3.74 0 0 Z " fill="#898989" transform="translate(67,23)"/>
</svg>
